<svg version="1.1" class="mautic-logo-figure" id="Layer_1" xmlns="http://www.w3.org/2000/svg" xmlns:xlink="http://www.w3.org/1999/xlink" viewBox="0 0 1000 140">
  <defs>
    <style>.cls-1{fill:url(#linear-gradient-5);}.cls-2{fill:url(#linear-gradient-6);}.cls-3{fill:url(#linear-gradient-4);}.cls-4{fill:url(#linear-gradient-3);}.cls-5{fill:url(#linear-gradient-2);}.cls-6{fill:url(#linear-gradient);}.cls-7{fill:#4e65ad;}</style>
    <linearGradient id="linear-gradient" x1="463.77" y1="91.01" x2="5.06" y2="91.01" gradientUnits="userSpaceOnUse">
      <stop offset=".02" stop-color="#833e90"/>
      <stop offset="1" stop-color="#554193"/>
    </linearGradient>
    <linearGradient id="linear-gradient-2" x1="463.77" y1="92.82" x2="5.06" y2="92.82" xlink:href="#linear-gradient"/>
    <linearGradient id="linear-gradient-3" x1="463.77" y1="16.62" x2="5.06" y2="16.62" xlink:href="#linear-gradient"/>
    <linearGradient id="linear-gradient-4" x1="463.77" y1="91.97" x2="5.06" y2="91.97" xlink:href="#linear-gradient"/>
    <linearGradient id="linear-gradient-5" x1="463.77" y1="70" x2="5.06" y2="70" xlink:href="#linear-gradient"/>
    <linearGradient id="linear-gradient-6" x1="463.77" y1="70.96" x2="5.06" y2="70.96" gradientUnits="userSpaceOnUse">
      <stop offset=".02" stop-color="#833e90"/>
      <stop offset="1" stop-color="#554193"/>
    </linearGradient>
  </defs>
  <path class="cls-6" d="M201.61,46.13c-3.51-1.46-7.57-2.2-12.16-2.2-10.35,0-18.26,3.28-23.75,9.84-.07.08-.12.17-.19.25v-8.17h-25.1v92.25h25.1v-50.81c0-7,1.69-12.16,5.07-15.47,3.38-3.31,7.76-4.97,13.12-4.97,2.55,0,4.82.35,6.8,1.05,1.98.7,3.67,1.88,5.08,3.53l15.71-18.14c-2.94-3.31-6.16-5.7-9.68-7.16Z"/>
  <path class="cls-5" d="M276.22,98.74c0,5.73-1.47,10.19-4.41,13.37-2.94,3.18-7.03,4.77-12.26,4.77-3.45,0-6.45-.7-9-2.1-2.56-1.4-4.47-3.47-5.75-6.21-1.28-2.74-1.91-6.02-1.91-9.84v-52.91h-25.29v53.48c0,8.02,1.79,15.09,5.36,21.2,3.58,6.11,8.56,10.86,14.94,14.23,6.38,3.37,13.6,5.06,21.65,5.06s15.23-1.69,21.55-5.06c6.32-3.37,11.27-8.12,14.85-14.23,3.57-6.11,5.36-13.18,5.36-21.2v-53.48h-25.09v52.91Z"/>
  <path class="cls-4" d="M333.88,2.29c-4.09,0-7.47,1.4-10.15,4.2-2.68,2.8-4.02,6.18-4.02,10.12s1.34,7.48,4.02,10.22c2.68,2.74,6.06,4.11,10.15,4.11s7.63-1.37,10.25-4.11c2.62-2.74,3.93-6.14,3.93-10.22s-1.31-7.32-3.93-10.12c-2.62-2.8-6.04-4.2-10.25-4.2Z"/><rect class="cls-3" x="321.05" y="45.84" width="25.48" height="92.25"/><path class="cls-1" d="M433.87,0v53.85c-2.4-2.26-5.12-4.22-8.24-5.81-5.36-2.74-11.37-4.11-18.01-4.11-8.56,0-16.19,2.1-22.89,6.3-6.71,4.2-12.04,9.93-16,17.19-3.96,7.26-5.94,15.47-5.94,24.64s1.98,17.19,5.94,24.45c3.96,7.26,9.29,12.99,16,17.19,6.7,4.2,14.33,6.3,22.89,6.3,6.77,0,12.83-1.37,18.2-4.11,3.13-1.6,5.85-3.6,8.24-5.91v8.11h25.29V0h-25.48ZM432.63,104.86c-1.98,3.69-4.76,6.62-8.33,8.79-3.58,2.17-7.66,3.25-12.26,3.25s-8.5-1.05-12.07-3.15c-3.58-2.1-6.36-5.03-8.33-8.79-1.98-3.75-2.97-8.12-2.97-13.08s.99-9.14,2.97-12.89c1.98-3.75,4.72-6.68,8.24-8.79,3.51-2.1,7.63-3.15,12.35-3.15s8.65,1.08,12.16,3.25c3.51,2.17,6.26,5.09,8.24,8.79,1.98,3.69,2.97,8.02,2.97,12.99s-.99,9.11-2.97,12.8Z"/><path class="cls-2" d="M117.04,44.12c-3.45-8.15-8.3-15.25-14.56-21.3-6.26-6.05-13.67-10.72-22.22-14.04-8.56-3.31-17.81-4.97-27.77-4.97H0v134.27h32.49c-.35-1.41-.29-2.97.3-4.7,5.72-18.12,13.93-45.92,14.39-57.76.11-2.97-1.55-1.59-1.81-1.01l-.27.59s-11.65,36.75-13.22,40.18c-.78,2.09-1.98-.56-1.98-.56l-3.64-45.86c-.05-.2-.21-.4-.39-.59-1.7-.49-5.28-1.53-6.03-2.21-1.01-.91-2.41-1.19-2.74-1.72-.34-.54.03-.69.03-.69,0,0-.75-.6.02-.96-.94-.79.36-1,.61-.88-.57-.87.95-.64.95-.64,0,0,1.88.32,3.64.64-.33-.45.45-1.01.94-.98.74.04,3.32.71,5.74,3.58l3.83-.72s4.81-18.42,13.39-19.35c-1.74-8.51,2.57-14.48,3.47-15.32.91-.84,3.82-2.22,5.16-3.36,1.65,1.6,8.1,6.01,12.4,13.1.26.83-.51,1.19-1.2.49-1.06-1.1-3.05-2.94-3.42-2.35-.96,1.4,4.77,6.77,3.35,9.43,10.93,5.63,12.26,21.85,14.86,23.57.97.66,1.85,1.6,2.58,2.53.93-.72,2.01-1.99,2.95-2.74.52-.56,2.07-.96,2.2-.64v-.02s.02.02.02.03h.01c.57-.57,1.24-1.26,1.6-1.71.5-.32.55.2.55.2,0,0,.65-.11.63.3.48.15.36.57.09,1.17.3.14.15.85.15.85,0,0-.31,1.31-.62,1.86-.32.57-1.13,1.65-2.08,2.35-.76.56-2.21.78-3.55,1.35l-5.49,36.21s-1.94,3.29-2.01-.22c-.27-12.41-7.45-33.5-7.45-33.5,0,0-2.18-2.41-1.53.16,2.42,9.78,4,36.28,6.26,55.02.07.57.08,1.12.06,1.66,1.74-.53,3.46-1.1,5.14-1.76,8.49-3.31,15.87-7.99,22.13-14.04,6.26-6.05,11.11-13.18,14.56-21.39,3.45-8.21,5.17-17.16,5.17-26.84s-1.73-18.59-5.17-26.74Z"/><path class="cls-7" d="M518.91,58.76V3.92h33.63v3.2h-29.83v22.53h28.01v3.2h-28.01v22.71h30.51v3.2h-34.31Z"/><path class="cls-7" d="M561.59,58.76l22.75-29.19v2.5l-21.86-28.16h4.44l11.92,15.31c.97,1.25,1.85,2.4,2.65,3.46.8,1.05,1.56,2.11,2.31,3.16.74,1.05,1.51,2.2,2.32,3.42h-1.01c.81-1.23,1.58-2.37,2.32-3.42.74-1.05,1.51-2.11,2.3-3.16.8-1.05,1.68-2.21,2.65-3.46l11.92-15.31h4.4l-21.86,28.12v-2.54l22.67,29.26h-4.44l-13.09-16.82c-.86-1.15-1.68-2.23-2.44-3.24-.77-1.01-1.52-2.02-2.24-3.05-.73-1.03-1.48-2.15-2.26-3.35h1.09c-.78,1.18-1.53,2.28-2.24,3.31-.72,1.03-1.46,2.06-2.22,3.07-.77,1.02-1.61,2.1-2.53,3.26l-13.13,16.82h-4.41Z"/><path class="cls-7" d="M620.76,58.76V3.92h18.67c3.8,0,7.07.72,9.8,2.15,2.73,1.44,4.84,3.4,6.31,5.89,1.47,2.49,2.2,5.32,2.2,8.48s-.73,5.99-2.2,8.47c-1.47,2.48-3.57,4.44-6.31,5.87-2.73,1.44-6,2.15-9.8,2.15h-16v-3.16h15.88c3.04,0,5.66-.57,7.84-1.71,2.19-1.14,3.86-2.72,5.03-4.73,1.17-2.01,1.76-4.31,1.76-6.88s-.59-4.9-1.76-6.9c-1.17-2-2.85-3.58-5.03-4.73-2.18-1.15-4.81-1.73-7.88-1.73h-14.71v51.68h-3.8Z"/><path class="cls-7" d="M671.84,58.76V3.92h33.62v3.2h-29.83v22.53h28.01v3.2h-28.01v22.71h30.51v3.2h-34.31Z"/><path class="cls-7" d="M720.66,58.76V3.92h18.67c3.8,0,7.06.67,9.8,2.02,2.73,1.35,4.84,3.24,6.31,5.67,1.47,2.43,2.2,5.23,2.2,8.39s-.73,5.94-2.2,8.32c-1.47,2.38-3.57,4.24-6.31,5.58-2.73,1.34-6,2.01-9.8,2.01h-16.61v-3.2h16.49c3.04,0,5.66-.52,7.84-1.56,2.18-1.04,3.86-2.51,5.03-4.42,1.17-1.9,1.76-4.14,1.76-6.72s-.58-4.86-1.76-6.79c-1.17-1.93-2.85-3.43-5.03-4.51-2.18-1.08-4.81-1.62-7.88-1.62h-14.71v51.68h-3.8ZM755.94,58.76l-14.71-24.88h4.28l14.79,24.88h-4.37Z"/><path class="cls-7" d="M776.15,3.92v54.84h-3.8V3.92h3.8Z"/><path class="cls-7" d="M793.49,58.76V3.92h33.62v3.2h-29.83v22.53h28.01v3.2h-28.01v22.71h30.51v3.2h-34.31Z"/><path class="cls-7" d="M842.31,58.76V3.92h4.2l30.31,39.46c.92,1.15,1.85,2.39,2.81,3.72.96,1.32,1.95,2.71,2.97,4.14,1.03,1.43,2.03,2.91,3.03,4.44h-.77c-.08-1.55-.15-3.06-.2-4.55-.05-1.48-.09-2.92-.12-4.31-.03-1.39-.04-2.69-.04-3.92V3.92h3.8v54.84h-4.24l-29.38-38.1c-1.03-1.35-2.03-2.71-3.01-4.07-.98-1.36-2.03-2.82-3.13-4.36-1.1-1.54-2.32-3.26-3.64-5.15h.85c.05,1.77.11,3.46.16,5.08.05,1.62.1,3.14.14,4.56.04,1.42.06,2.72.06,3.9v38.13h-3.8Z"/><path class="cls-7" d="M928.19,59.5c-5.01,0-9.45-1.16-13.3-3.5-3.85-2.33-6.86-5.6-9.03-9.81-2.17-4.21-3.25-9.15-3.25-14.81s1.09-10.64,3.25-14.85c2.17-4.21,5.18-7.48,9.03-9.83,3.85-2.34,8.29-3.52,13.3-3.52,3.37,0,6.4.5,9.11,1.51,2.71,1,5.05,2.37,7.03,4.08,1.98,1.72,3.58,3.64,4.81,5.76,1.23,2.12,2.05,4.31,2.49,6.57h-3.84c-.4-1.89-1.14-3.7-2.2-5.45-1.06-1.74-2.43-3.31-4.1-4.69-1.67-1.39-3.62-2.49-5.86-3.29-2.24-.81-4.72-1.21-7.44-1.21-3.96,0-7.59.96-10.89,2.89s-5.95,4.74-7.94,8.45c-1.99,3.71-2.99,8.23-2.99,13.58s1,9.91,2.99,13.6c1.99,3.69,4.64,6.49,7.94,8.39,3.3,1.9,6.93,2.85,10.89,2.85,2.72,0,5.2-.41,7.44-1.23,2.24-.82,4.18-1.93,5.84-3.31,1.66-1.39,3.03-2.95,4.1-4.69,1.08-1.74,1.82-3.54,2.22-5.41h3.84c-.43,2.23-1.26,4.41-2.49,6.53-1.23,2.12-2.83,4.04-4.81,5.76-1.98,1.72-4.32,3.09-7.03,4.1-2.71,1.02-5.74,1.53-9.11,1.53Z"/><path class="cls-7" d="M965.69,58.76V3.92h33.63v3.2h-29.83v22.53h28.01v3.2h-28.01v22.71h30.51v3.2h-34.31Z"/><path class="cls-7" d="M518.91,138.13v-54.84h18.67c3.8,0,7.07.72,9.8,2.15,2.73,1.44,4.84,3.4,6.31,5.89,1.47,2.49,2.2,5.32,2.2,8.48s-.73,5.99-2.2,8.47c-1.47,2.48-3.57,4.44-6.31,5.87-2.73,1.44-6,2.15-9.8,2.15h-16v-3.16h15.88c3.04,0,5.66-.57,7.84-1.71,2.19-1.14,3.86-2.72,5.03-4.73,1.17-2.01,1.76-4.31,1.76-6.88s-.59-4.9-1.76-6.9-2.85-3.58-5.03-4.73c-2.18-1.15-4.81-1.73-7.88-1.73h-14.71v51.68h-3.8Z"/><path class="cls-7" d="M570,138.13v-54.84h3.84v51.64h29.34v3.2h-33.18Z"/><path class="cls-7" d="M608.34,138.13l22.31-54.84h4.65l22.43,54.84h-4l-15.92-39.16c-.78-1.99-1.61-4.13-2.48-6.44-.88-2.31-1.83-4.89-2.85-7.77h.97c-1,2.9-1.94,5.5-2.83,7.82-.89,2.32-1.72,4.45-2.5,6.39l-15.72,39.16h-4.04ZM617.92,120.87v-3.17h30.23v3.17h-30.23Z"/><path class="cls-7" d="M657.93,86.49v-3.2h42.27v3.2h-19.24v51.64h-3.8v-51.64h-19.24Z"/><path class="cls-7" d="M713.66,138.13v-54.84h33.63v3.2h-29.83v22.82h27.04v3.2h-27.04v25.62h-3.8Z"/><path class="cls-7" d="M784.67,138.87c-5.01,0-9.45-1.16-13.3-3.5-3.85-2.33-6.86-5.61-9.03-9.85-2.17-4.23-3.25-9.16-3.25-14.78s1.09-10.61,3.28-14.83c2.18-4.22,5.19-7.5,9.03-9.85,3.84-2.34,8.26-3.52,13.28-3.52s9.43,1.17,13.25,3.52c3.83,2.34,6.82,5.63,8.99,9.85,2.17,4.22,3.25,9.17,3.25,14.83s-1.09,10.58-3.25,14.8c-2.17,4.22-5.17,7.5-8.99,9.83-3.83,2.33-8.24,3.5-13.25,3.5ZM784.67,135.59c4.23,0,7.98-1.02,11.25-3.05,3.27-2.04,5.84-4.92,7.7-8.65,1.86-3.73,2.79-8.11,2.79-13.14s-.93-9.48-2.79-13.19c-1.86-3.72-4.43-6.6-7.7-8.65-3.27-2.05-7.02-3.07-11.25-3.07s-7.99,1.02-11.28,3.05c-3.29,2.04-5.87,4.91-7.74,8.63-1.87,3.72-2.81,8.13-2.81,13.23s.92,9.4,2.77,13.12c1.85,3.72,4.41,6.6,7.7,8.65,3.28,2.05,7.07,3.07,11.36,3.07Z"/><path class="cls-7" d="M824.48,138.13v-54.84h18.67c3.8,0,7.06.67,9.8,2.02,2.73,1.35,4.84,3.24,6.31,5.67,1.47,2.43,2.2,5.23,2.2,8.39s-.73,5.94-2.2,8.32c-1.47,2.38-3.57,4.24-6.31,5.58-2.73,1.34-6,2.01-9.8,2.01h-16.61v-3.2h16.49c3.04,0,5.66-.52,7.84-1.56s3.86-2.51,5.03-4.42c1.17-1.9,1.76-4.14,1.76-6.72s-.58-4.86-1.76-6.79-2.85-3.43-5.03-4.51-4.81-1.62-7.88-1.62h-14.71v51.68h-3.8ZM859.76,138.13l-14.71-24.88h4.28l14.79,24.88h-4.37Z"/><path class="cls-7" d="M876.17,138.13v-54.84h5.33l18.83,40.64c.38.83.77,1.74,1.2,2.71.41.97.83,1.98,1.25,3.04.42,1.05.84,2.1,1.25,3.15.42,1.04.82,2.06,1.19,3.04h-1.21c.41-.96.82-1.96,1.23-3,.42-1.04.84-2.09,1.27-3.15.43-1.05.85-2.07,1.27-3.05s.81-1.89,1.19-2.72l18.71-40.64h5.38v54.84h-3.76v-38.32c0-1.03,0-2.12.02-3.27.02-1.15.03-2.34.04-3.55.01-1.21.03-2.44.04-3.66.02-1.23.03-2.42.06-3.57h.56c-.48,1.25-.98,2.51-1.49,3.77-.51,1.26-1.03,2.5-1.54,3.72-.51,1.21-1.02,2.37-1.52,3.48-.5,1.11-.96,2.13-1.4,3.09l-17.74,38.32h-3.47l-17.83-38.32c-.43-.93-.89-1.95-1.37-3.05-.48-1.1-.98-2.26-1.49-3.46-.51-1.2-1.03-2.44-1.56-3.72-.52-1.27-1.04-2.55-1.56-3.83h.61c.03,1.1.05,2.26.06,3.46.02,1.2.03,2.42.04,3.64.01,1.23.03,2.43.04,3.61.02,1.18.02,2.29.02,3.35v38.32h-3.68Z"/>
</svg>
